<svg id="Capa_1" enable-background="new 0 0 508.979 508.979" height="512" viewBox="0 0 508.979 508.979" width="512" xmlns="http://www.w3.org/2000/svg"><g id="XMLID_1174_"><g id="XMLID_1175_"><path id="XMLID_2085_" d="m14.489 240c0 54.08 18.335 106.643 51.786 148.901l-31.956 120.078 123.57-49.228c30.489 13.439 62.954 20.249 96.6 20.249l10-241.021-10-238.979c-132.64 0-240 107.341-240 240z" fill="#ffdf24"/><path id="XMLID_2084_" d="m254.489 0v480c132.643 0 240-107.341 240-240 0-132.642-107.342-240-240-240z" fill="#ffbe2e"/></g><path id="XMLID_2083_" d="m224.45 165h-29.961v150h30v-72.566l30 71.287 10-42.054-10-35.289z" fill="#524798"/><path id="XMLID_2082_" d="m89.489 315h75v-30h-45v-30h30v-30h-30v-30h45v-30h-75z" fill="#524798"/><g fill="#38336b"><path id="XMLID_2081_" d="m366.989 195h52.5v-30h-52.5c-28.948 0-52.5 23.552-52.5 52.5v45c0 28.948 23.552 52.5 52.5 52.5h52.5v-90h-45v30h15v30h-22.5c-12.406 0-22.5-10.093-22.5-22.5v-45c0-12.406 10.094-22.5 22.5-22.5z"/><path id="XMLID_2080_" d="m254.489 313.721.539 1.279h29.461v-150h-30z"/></g></g></svg>